# xmcd
#
# Track frame offsets: 
#        150
#        10750
#        21167
#        38586
#        49303
#        68471
#        78380
#        102896
#        115265
#        125596
#        135929
#        146774
#        163561
#        181824
#        198795
#        213362
#        227465
#        245205
#        258541
#        271041
#
# Disc length: 3786 seconds
#
# Revision: 0
# Processed by: cddbd v1.5.2PL0 Copyright (c) Steve Scherf et al.
# Submitted via: ExactAudioCopy v1.1
#
DISCID=080ec814
DTITLE=Herman Van Veen - 100 - CD 1
DYEAR=2009
DGENRE=Cabaret
TTITLE0=Harlekijnlied (1998)
TTITLE1=Dikkertje Dap
TTITLE2=Suzanne (1987)
TTITLE3=De Neus (1991)
TTITLE4=Regels
TTITLE5=Fiets (1987)
TTITLE6=Rozegeur and Marjolein (1987)
TTITLE7=Voor Een Verre Prinses (2009)
TTITLE8=De Tijd Tikt (2006)
TTITLE9=Dat Tedere Gevoel (1998)
TTITLE10=Ochtend (2009)
TTITLE11=Later (1991)
TTITLE12=Adieu Café (2009)
TTITLE13=Alles (1998)
TTITLE14=In De Jaren 60 (1998)
TTITLE15=Waar Blijft De Tijd (1998)
TTITLE16=Kletsnatte Clowns (1998)
TTITLE17=Te Hooi En Te Gras (Live 1984)
TTITLE18=Mengelmoes
TTITLE19=Hebben En Houwen (1991)
EXTD=
EXTT0=
EXTT1=
EXTT2=
EXTT3=
EXTT4=
EXTT5=
EXTT6=
EXTT7=
EXTT8=
EXTT9=
EXTT10=
EXTT11=
EXTT12=
EXTT13=
EXTT14=
EXTT15=
EXTT16=
EXTT17=
EXTT18=
EXTT19=
PLAYORDER=
